<?xml version="1.0" encoding="UTF-8"?>
<svg version="1.1" xmlns="http://www.w3.org/2000/svg" width="350" height="488">
<path d="M0 0 C0.33910994 2.04071515 0.67102704 4.08262621 1 6.125 C1.185625 7.26195312 1.37125 8.39890625 1.5625 9.5703125 C1.96982709 12.7634659 2.00451133 15.78793622 2 19 C2.64949225 21.33817209 3.31744011 23.67126625 4 26 C4.19186889 27.32994056 4.35812561 28.66380121 4.5 30 C4.78701259 32.67024215 5.23751316 34.81645149 6 37.4375 C6.76905462 40.17725707 7.18923658 42.3434364 7.4375 45.125 C8.21428175 53.15174473 10.4787106 60.94695369 12.4375 68.75 C13.70702752 73.80785164 14.9625181 78.86868403 16.1875 83.9375 C16.36659912 84.65969727 16.54569824 85.38189453 16.73022461 86.12597656 C17.61485726 89.81993309 18.21578635 93.19769561 18 97 C18.66 97.33 19.32 97.66 20 98 C20.73595889 100.50285614 21.36500027 102.95947905 21.9375 105.5 C23.03365879 110.17487105 24.1602917 114.73295347 25.8125 119.25 C27.32865299 124.03785155 27.32865299 124.03785155 26 127 C23.671875 128.96484375 23.671875 128.96484375 20.75 130.9375 C15.96861522 134.28323703 12.01855226 137.63541021 8.22265625 142.08203125 C7.59230469 142.81808594 6.96195313 143.55414063 6.3125 144.3125 C5.44044922 145.35857422 5.44044922 145.35857422 4.55078125 146.42578125 C4.03902344 146.94527344 3.52726563 147.46476563 3 148 C2.34 148 1.68 148 1 148 C1 149.32 1 150.64 1 152 C0.21625 152.226875 -0.5675 152.45375 -1.375 152.6875 C-4.76603802 154.38301901 -4.70515275 155.49629568 -6 159 C-8.56983292 162.82321769 -11.44146492 166.37164803 -14.5 169.8125 C-17.46182512 173.29025595 -19.45621929 177.28820162 -21.5703125 181.31640625 C-24.34974513 186.533538 -24.34974513 186.533538 -26 189 C-26.66 189 -27.32 189 -28 189 C-28.103125 190.093125 -28.20625 191.18625 -28.3125 192.3125 C-29.04037226 196.2165421 -29.34001833 196.49258586 -32 199 C-32.94525558 200.78923377 -33.88034158 202.58484796 -34.75390625 204.41015625 C-36.64142094 208.33310998 -38.63551352 212.20377135 -40.62597656 216.07543945 C-42.1087848 219.00958509 -43.39759046 221.75502062 -44 225 C-44.66 225 -45.32 225 -46 225 C-46.0825 225.825 -46.165 226.65 -46.25 227.5 C-47.03098761 231.14460884 -48.29160741 233.82801651 -50.0625 237.0703125 C-51.01632239 239.03359691 -51.54577087 240.87080096 -52 243 C-52.66 243 -53.32 243 -54 243 C-54.0928125 244.3303125 -54.0928125 244.3303125 -54.1875 245.6875 C-55.17587398 252.6625964 -58.42643353 259.2179192 -61.11328125 265.67578125 C-62.81294233 269.79040479 -64.27032236 273.80905016 -65.375 278.125 C-66.82835197 283.79226077 -68.87332505 289.17173427 -71.01904297 294.60595703 C-72.1681885 297.55748476 -73 299.8018232 -73 303 C-73.4360667 304.28625965 -73.91987989 305.55683783 -74.4375 306.8125 C-75.76570262 310.22258301 -76.43144524 313.37546343 -77 317 C-77.94482885 320.68227892 -78.96511733 324.34211284 -80 328 C-80.66 328 -81.32 328 -82 328 C-81.96390625 329.01578125 -81.9278125 330.0315625 -81.890625 331.078125 C-81.99966181 334.98787365 -82.65016781 338.01057056 -83.75 341.75 C-86.29142641 350.7414305 -88.15619969 359.84415433 -90 369 C-90.18095215 369.89638184 -90.3619043 370.79276367 -90.54833984 371.71630859 C-91.5765422 376.81767015 -92.60296046 381.91940388 -93.60302734 387.02636719 C-93.93394717 388.67160451 -94.30048476 390.30962723 -94.67578125 391.9453125 C-95.21313014 394.05803867 -95.21313014 394.05803867 -94 396 C-94.65986115 397.33671444 -95.32755514 398.66957145 -96 400 C-96.34408129 402.18103053 -96.34408129 402.18103053 -96.4375 404.5 C-96.92256775 410.51843316 -98.4126089 416.18954956 -100 422 C-101.8125 422.625 -101.8125 422.625 -104 423 C-107 421 -107 421 -107.94921875 417.953125 C-108.19285156 416.73109375 -108.43648437 415.5090625 -108.6875 414.25 C-108.93886719 413.03828125 -109.19023437 411.8265625 -109.44921875 410.578125 C-110 407 -110 407 -109.95703125 404.109375 C-110.00464189 400.66409605 -110.67173929 397.69435114 -111.46533203 394.35595703 C-112.32212398 390.58059526 -112.8660271 386.76456376 -113.4375 382.9375 C-115.60489824 368.88720693 -118.34993534 355.00617767 -121.51611328 341.14892578 C-121.85145605 339.65967905 -122.1773154 338.16827724 -122.49560547 336.67529297 C-123.4266194 332.33086407 -124.57950009 328.21449788 -126 324 C-127.04388857 320.19885176 -128.02060062 316.38070301 -129 312.5625 C-131.91846451 300.99642361 -131.91846451 300.99642361 -135.5 289.625 C-140.5446492 274.4653144 -137.54601996 262.11880055 -131.87451172 247.36572266 C-129.49279519 240.92272065 -127.45338849 234.34958268 -125.31640625 227.82226562 C-123.42466791 222.09290994 -121.4694496 216.50465546 -119 211 C-118.62691369 209.67723944 -118.26953585 208.34767923 -118 207 C-117.34 207 -116.68 207 -116 207 C-115.87625 205.576875 -115.87625 205.576875 -115.75 204.125 C-115.02347625 199.0897868 -112.99203798 194.64808861 -111 190 C-110.10170372 187.87603998 -109.20589683 185.75102551 -108.3125 183.625 C-107.68794922 182.15933594 -107.68794922 182.15933594 -107.05078125 180.6640625 C-105.97660247 178.14176037 -105.97660247 178.14176037 -105.54296875 175.9609375 C-104.81702811 173.33919503 -103.4013941 171.32762264 -102 169 C-101.14602301 166.93332215 -100.33543679 164.84833332 -99.5625 162.75 C-97.80533738 158.06599723 -95.92142831 153.49585687 -93.84765625 148.9453125 C-92.71770111 146.35214357 -91.83135674 143.7019094 -91 141 C-90.34 141 -89.68 141 -89 141 C-88.91492188 140.33742187 -88.82984375 139.67484375 -88.7421875 138.9921875 C-87.762451 135.04230246 -85.9997195 131.71989222 -84.125 128.125 C-82.12112248 124.24202854 -80.16703087 120.38987858 -78.4453125 116.37109375 C-77.04444411 113.10366289 -75.4678617 110.04811407 -73.75 106.9375 C-70.52416948 101.0325899 -67.51814636 95.04786668 -64.578125 88.99609375 C-63.21395107 86.40618929 -61.74916802 84.32461233 -60 82 C-58.90099583 79.93569046 -57.84005893 77.85078715 -56.8125 75.75 C-56.28269531 74.67234375 -55.75289063 73.5946875 -55.20703125 72.484375 C-54.80871094 71.66453125 -54.41039062 70.8446875 -54 70 C-53.34 70 -52.68 70 -52 70 C-51.731875 69.29875 -51.46375 68.5975 -51.1875 67.875 C-48.55934183 61.51209074 -45.30739568 55.39924249 -41 50 C-40.34 50 -39.68 50 -39 50 C-39 49.01 -39 48.02 -39 47 C-38.34 47 -37.68 47 -37 47 C-36.814375 46.1028125 -36.814375 46.1028125 -36.625 45.1875 C-35.47268315 41.15439103 -32.50937223 37.92068405 -30.0625 34.5625 C-29.02802734 33.14130859 -29.02802734 33.14130859 -27.97265625 31.69140625 C-27.32167969 30.80324219 -26.67070312 29.91507813 -26 29 C-25.19369141 27.83791016 -25.19369141 27.83791016 -24.37109375 26.65234375 C-23.91863281 26.10707031 -23.46617187 25.56179687 -23 25 C-22.34 25 -21.68 25 -21 25 C-20.01 22.525 -20.01 22.525 -19 20 C-18.34 20 -17.68 20 -17 20 C-16.67 18.68 -16.34 17.36 -16 16 C-15.34 16 -14.68 16 -14 16 C-13.34 14.35 -12.68 12.7 -12 11 C-11.34 11 -10.68 11 -10 11 C-10 10.34 -10 9.68 -10 9 C-9.34 9 -8.68 9 -8 9 C-7.6596875 7.88625 -7.6596875 7.88625 -7.3125 6.75 C-6.02391034 4.05009785 -3.43091861 0 0 0 Z " fill="#000100" transform="translate(309,54)"/>
<path d="M0 0 C-1.32265259 3.96795776 -3.90186749 5.55090623 -7.24609375 7.75390625 C-9.0630257 8.96407858 -9.0630257 8.96407858 -10.59765625 10.65234375 C-12 12 -12 12 -14 12 C-14.33 12.66 -14.66 13.32 -15 14 C-18.57692308 17 -18.57692308 17 -21 17 C-21 17.66 -21 18.32 -21 19 C-21.66 19 -22.32 19 -23 19 C-23.309375 19.8353125 -23.309375 19.8353125 -23.625 20.6875 C-25.51040088 23.85840149 -28.15359359 25.68729479 -31 28 C-31.66 28.99 -32.32 29.98 -33 31 C-33.680625 31.6496875 -33.680625 31.6496875 -34.375 32.3125 C-36.19183138 34.09652033 -36.19183138 34.09652033 -37.9375 36.9375 C-39.78091314 39.67468921 -41.51329204 41.8448531 -44 44 C-44.66 44 -45.32 44 -46 44 C-46.38285156 44.8353125 -46.38285156 44.8353125 -46.7734375 45.6875 C-48.17537827 48.33064948 -49.83421774 50.60277753 -51.625 53 C-55.39401602 58.09400708 -58.84704318 63.3123724 -62.23828125 68.6640625 C-64 71 -64 71 -67 72 C-67.73323796 74.01508358 -67.73323796 74.01508358 -68 76 C-68.66 76 -69.32 76 -70 76 C-70.07476562 76.68191406 -70.14953125 77.36382812 -70.2265625 78.06640625 C-71.22511369 81.85384032 -73.19949892 84.7396511 -75.375 87.9375 C-78.22784062 92.18455144 -80.80360994 96.35924035 -83 101 C-83.66 101 -84.32 101 -85 101 C-85.268125 101.886875 -85.53625 102.77375 -85.8125 103.6875 C-86.93602391 106.82154039 -88.27282493 109.17037275 -90 112 C-91.22069876 114.20152222 -92.42851287 116.41022595 -93.625 118.625 C-94.54152344 120.31496094 -94.54152344 120.31496094 -95.4765625 122.0390625 C-97.065628 124.94215455 -97.065628 124.94215455 -98 128 C-98.66 128 -99.32 128 -100 128 C-100.12375 128.556875 -100.2475 129.11375 -100.375 129.6875 C-101.64104688 134.37187346 -103.7537528 138.62001508 -105.9375 142.9375 C-106.44152344 143.93652344 -106.94554687 144.93554688 -107.46484375 145.96484375 C-107.97144531 146.96644531 -108.47804687 147.96804687 -109 149 C-109.50789062 150.01835937 -110.01578125 151.03671875 -110.5390625 152.0859375 C-111.42823569 153.85952894 -112.32787102 155.6279912 -113.24609375 157.38671875 C-115.96167237 162.63090172 -118.08345307 167.88116306 -120.02734375 173.453125 C-121.34485337 176.90298954 -123.07324102 179.85296033 -125 183 C-126.98988811 186.70270319 -128.50672719 190.60110465 -130.0625 194.5 C-130.33126953 195.16386719 -130.60003906 195.82773438 -130.87695312 196.51171875 C-132.12838091 199.63872782 -133.31717856 202.69548141 -134 206 C-134.66 206 -135.32 206 -136 206 C-136.11730469 206.67546875 -136.23460937 207.3509375 -136.35546875 208.046875 C-137.11566396 211.52995124 -138.17848682 214.87525524 -139.3125 218.25 C-139.53252686 218.9087915 -139.75255371 219.56758301 -139.97924805 220.24633789 C-141.70409421 225.32135405 -143.70702435 230.15927362 -146 235 C-146.66 235 -147.32 235 -148 235 C-147.80760742 235.5779834 -147.61521484 236.1559668 -147.41699219 236.75146484 C-146.92673266 239.39507743 -147.3025387 240.51905899 -148.328125 242.9765625 C-148.78360718 244.09804688 -148.78360718 244.09804688 -149.24829102 245.2421875 C-149.57885498 246.02851563 -149.90941895 246.81484375 -150.25 247.625 C-150.91289247 249.26191542 -151.57308056 250.8999288 -152.23046875 252.5390625 C-152.70105713 253.70937012 -152.70105713 253.70937012 -153.18115234 254.90332031 C-154.37893798 257.97028006 -155.305717 261.07718609 -156.1875 264.24609375 C-157.58586755 268.98575299 -159.22655119 273.6494519 -160.84399414 278.31835938 C-162.60044603 283.48472904 -163.91964208 288.65187318 -165 294 C-165.66 294 -166.32 294 -167 294 C-167.25394531 292.85402344 -167.50789062 291.70804687 -167.76953125 290.52734375 C-168.11683806 288.99731647 -168.46451401 287.46737295 -168.8125 285.9375 C-168.97814453 285.18533203 -169.14378906 284.43316406 -169.31445312 283.65820312 C-170.42784118 278.80551179 -171.96664232 274.54098377 -174 270 C-174.53247161 268.34342167 -175.03656283 266.67720117 -175.5 265 C-176.71373435 260.83326249 -178.22187437 256.96658795 -180 253 C-180.7734147 251.12606331 -181.54395436 249.25093887 -182.3125 247.375 C-185.68748397 239.26283973 -189.30737223 231.25910821 -193.3125 223.4375 C-194.61044251 220.79354304 -195.37972333 218.80659839 -196 216 C-196.66 216 -197.32 216 -198 216 C-198 214.68 -198 213.36 -198 212 C-198.66 211.67 -199.32 211.34 -200 211 C-201.02857382 209.42705564 -202.00018399 207.81647414 -202.9375 206.1875 C-204.37660383 203.69575245 -205.77496826 201.29636913 -207.515625 199.00390625 C-209.22636274 196.69441031 -210.48976845 194.30072199 -211.8125 191.75 C-214.16626151 187.34333372 -216.75493468 183.43558056 -219.8984375 179.55859375 C-221 178 -221 178 -221 176 C-221.66 175.67 -222.32 175.34 -223 175 C-227 170.41176471 -227 170.41176471 -227 168 C-227.66 168 -228.32 168 -229 168 C-229 167.01 -229 166.02 -229 165 C-229.66 165 -230.32 165 -231 165 C-231 164.34 -231 163.68 -231 163 C-231.66 163 -232.32 163 -233 163 C-233 162.01 -233 161.02 -233 160 C-233.66 160 -234.32 160 -235 160 C-235 159.34 -235 158.68 -235 158 C-235.66 158 -236.32 158 -237 158 C-237 157.01 -237 156.02 -237 155 C-237.66 155 -238.32 155 -239 155 C-240.5078125 153.57421875 -240.5078125 153.57421875 -242.125 151.6875 C-242.66382813 151.07261719 -243.20265625 150.45773438 -243.7578125 149.82421875 C-245 148 -245 148 -245 145 C-246.98 144.01 -246.98 144.01 -249 143 C-249 142.34 -249 141.68 -249 141 C-249.66 141 -250.32 141 -251 141 C-256 135.52380952 -256 135.52380952 -256 133 C-256.8353125 132.6596875 -256.8353125 132.6596875 -257.6875 132.3125 C-260.66159588 130.62449964 -262.72008865 128.53323483 -265 126 C-265 125.34 -265 124.68 -265 124 C-265.58007812 123.73574219 -266.16015625 123.47148437 -266.7578125 123.19921875 C-271.98158542 120.4053193 -276.28724739 116.00235977 -280 111.4375 C-282.69357653 108.15516357 -285.727785 105.81624641 -289.1640625 103.34765625 C-291.34550806 101.74638238 -293.23798002 100.05568998 -295 98 C-295 97.34 -295 96.68 -295 96 C-296.65 95.67 -298.3 95.34 -300 95 C-300 94.34 -300 93.68 -300 93 C-301.84999696 91.54708473 -301.84999696 91.54708473 -304.1875 90.125 C-306.87913454 88.39677625 -309.37752423 86.69633921 -311.875 84.6875 C-313.98368784 82.81525527 -313.98368784 82.81525527 -317 82 C-317 81.34 -317 80.68 -317 80 C-318.32 80 -319.64 80 -321 80 C-321.33 79.01 -321.66 78.02 -322 77 C-318.12548021 75.7084934 -316.82635214 76.65369091 -313 78 C-310.01258762 78.72732752 -307.00958242 79.37133167 -304 80 C-304 80.66 -304 81.32 -304 82 C-302.515 81.505 -302.515 81.505 -301 81 C-298.625 81.8125 -298.625 81.8125 -296 83 C-290.19334385 85.41944006 -284.2446697 87.37443631 -278.1875 89.0625 C-274.68048753 90.09397426 -271.78373122 91.58552676 -268.5625 93.2890625 C-267.2940625 93.95035156 -267.2940625 93.95035156 -266 94.625 C-264.7315625 95.29402344 -264.7315625 95.29402344 -263.4375 95.9765625 C-260.82592374 97.258088 -260.82592374 97.258088 -257 97 C-257 97.66 -257 98.32 -257 99 C-256.4225 99.144375 -255.845 99.28875 -255.25 99.4375 C-253.16666667 99.95833333 -251.08333333 100.47916667 -249 101 C-249 101.66 -249 102.32 -249 103 C-247.845 103.226875 -246.69 103.45375 -245.5 103.6875 C-241.31482554 104.70772936 -238.18928813 106.54682531 -234.6640625 108.9765625 C-233.04166708 110.17462476 -233.04166708 110.17462476 -231 110 C-231 110.66 -231 111.32 -231 112 C-226.32047386 113.80441192 -226.32047386 113.80441192 -221.5625 113.125 C-221.046875 112.75375 -220.53125 112.3825 -220 112 C-218.2925002 113.28062485 -216.62626404 114.61767557 -215 116 C-215 116.66 -215 117.32 -215 118 C-214.01 118 -213.02 118 -212 118 C-212 118.66 -212 119.32 -212 120 C-209.1575146 121.57273568 -209.1575146 121.57273568 -206 122 C-204.515 122.495 -204.515 122.495 -203 123 C-202.938125 123.763125 -202.87625 124.52625 -202.8125 125.3125 C-202.24174683 128.20660819 -202.24174683 128.20660819 -199.5625 129.6875 C-198.716875 130.120625 -197.87125 130.55375 -197 131 C-196.34 131.66 -195.68 132.32 -195 133 C-193.700625 133.7425 -193.700625 133.7425 -192.375 134.5 C-191.199375 135.2425 -191.199375 135.2425 -190 136 C-190 136.66 -190 137.32 -190 138 C-189.42765625 138.2784375 -188.8553125 138.556875 -188.265625 138.84375 C-186.03382434 139.98273792 -183.89129126 141.19936383 -181.75 142.5 C-181.04359375 142.9228125 -180.3371875 143.345625 -179.609375 143.78125 C-179.07828125 144.1834375 -178.5471875 144.585625 -178 145 C-178 145.66 -178 146.32 -178 147 C-177.34 147 -176.68 147 -176 147 C-175.34 148.32 -174.68 149.64 -174 151 C-173.34 151 -172.68 151 -172 151 C-172 151.66 -172 152.32 -172 153 C-169.6147267 153.12815365 -169.6147267 153.12815365 -167 152 C-164.94304343 149.00985547 -163 145.686098 -163 142 C-162.5875 141.608125 -162.175 141.21625 -161.75 140.8125 C-159.21580866 138.18780183 -157.74974638 135.19781235 -156 132 C-155.34 132 -154.68 132 -154 132 C-153.67 131.01 -153.34 130.02 -153 129 C-152.34 129 -151.68 129 -151 129 C-150.79375 128.175 -150.5875 127.35 -150.375 126.5 C-148.64979213 122.10856178 -146.22530939 118.45318451 -143 115 C-142.34 115 -141.68 115 -141 115 C-141 114.01 -141 113.02 -141 112 C-140.34 111.34 -139.68 110.68 -139 110 C-137.50235443 108.19364754 -136.01524205 106.37936426 -134.53515625 104.55859375 C-133 103 -133 103 -130 102 C-129.31379969 100.67661368 -128.65213539 99.34050052 -128 98 C-126.43955895 95.85832084 -124.79050671 93.96955738 -123 92 C-122.34 92 -121.68 92 -121 92 C-120.67 91.01 -120.34 90.02 -120 89 C-119.34 89 -118.68 89 -118 89 C-118 88.34 -118 87.68 -118 87 C-117.195625 86.731875 -116.39125 86.46375 -115.5625 86.1875 C-114.716875 85.795625 -113.87125 85.40375 -113 85 C-112.67 84.01 -112.34 83.02 -112 82 C-111.34 82 -110.68 82 -110 82 C-109.814375 81.278125 -109.62875 80.55625 -109.4375 79.8125 C-107.70728545 76.42729761 -105.85873017 75.30795219 -102.74609375 73.26953125 C-100.36600941 71.53904487 -98.78665138 69.31602957 -97 67 C-96.34 67 -95.68 67 -95 67 C-95 66.34 -95 65.68 -95 65 C-94.01 65 -93.02 65 -92 65 C-92 64.34 -92 63.68 -92 63 C-91.0409375 62.8453125 -91.0409375 62.8453125 -90.0625 62.6875 C-89.381875 62.460625 -88.70125 62.23375 -88 62 C-87.67 61.01 -87.34 60.02 -87 59 C-83.55555556 56 -83.55555556 56 -81 56 C-81 55.34 -81 54.68 -81 54 C-79.26451831 52.55473264 -77.46024037 51.1912778 -75.625 49.875 C-74.12839844 48.78832031 -74.12839844 48.78832031 -72.6015625 47.6796875 C-70 46 -70 46 -68 46 C-68 45.34 -68 44.68 -68 44 C-62.58823529 40 -62.58823529 40 -60 40 C-60 39.34 -60 38.68 -60 38 C-58.20963542 37.0234375 -56.41927083 36.046875 -54.62890625 35.0703125 C-52.83381685 34.08589976 -52.83381685 34.08589976 -52 32 C-51.01 32 -50.02 32 -49 32 C-49 31.34 -49 30.68 -49 30 C-48.34 30 -47.68 30 -47 30 C-46.54625 29.525625 -46.0925 29.05125 -45.625 28.5625 C-43.77022513 26.77906263 -42.49864408 26.4308007 -40 26 C-40 25.34 -40 24.68 -40 24 C-37.8828125 22.4921875 -37.8828125 22.4921875 -35.125 20.875 C-34.22007812 20.33617188 -33.31515625 19.79734375 -32.3828125 19.2421875 C-30 18 -30 18 -28 18 C-27.67 17.34 -27.34 16.68 -27 16 C-25.35636866 15.27840576 -23.68949614 14.60648579 -22 14 C-22 13.34 -22 12.68 -22 12 C-18.69620273 10.08379758 -15.44492945 8.21319536 -12 6.5625 C-9.52677765 5.27436336 -7.4815618 3.95389669 -5.25 2.3125 C-2 0 -2 0 0 0 Z " fill="#038842" transform="translate(326,5)"/>
<path d="M0 0 C1.45686799 0.0018726 2.91373662 0.0032925 4.37060547 0.00428772 C8.14499756 0.00804679 11.91934915 0.01781776 15.69372559 0.0289917 C19.56924899 0.03935077 23.44477915 0.0438159 27.3203125 0.04882812 C34.88022649 0.05944831 42.4401075 0.07644168 50 0.09765625 C49.67 1.41765625 49.34 2.73765625 49 4.09765625 C47.35 4.42765625 45.7 4.75765625 44 5.09765625 C44 5.75765625 44 6.41765625 44 7.09765625 C39.61538462 10.09765625 39.61538462 10.09765625 37 10.09765625 C37 10.75765625 37 11.41765625 37 12.09765625 C36.030625 12.36578125 35.06125 12.63390625 34.0625 12.91015625 C33.051875 13.30203125 32.04125 13.69390625 31 14.09765625 C30.67 15.08765625 30.34 16.07765625 30 17.09765625 C28.03501678 18.48207625 26.02951535 19.80969459 24 21.09765625 C22.31916921 22.41308904 20.6475884 23.74081874 19 25.09765625 C19.66760109 28.62522744 21.13421278 31.26134561 22.9375 34.34765625 C28.0031093 43.54349855 29.82081159 53.07452582 27.125 63.47265625 C26.75375 64.33890625 26.3825 65.20515625 26 66.09765625 C25.62875 67.21140625 25.2575 68.32515625 24.875 69.47265625 C24.58625 70.33890625 24.2975 71.20515625 24 72.09765625 C23.34 72.09765625 22.68 72.09765625 22 72.09765625 C21.77441406 72.99226563 21.54882812 73.886875 21.31640625 74.80859375 C18.5097378 81.82110067 10.82167759 86.51380808 4.125 89.59765625 C-5.87567088 93.70439562 -16.67972527 93.2355742 -26.5625 89.16796875 C-27.366875 88.81476563 -28.17125 88.4615625 -29 88.09765625 C-30.66633287 87.43015571 -32.33294455 86.76335014 -34 86.09765625 C-38.32679318 84.14362062 -42.85244673 81.9754707 -45.375 77.84765625 C-45.58125 77.27015625 -45.7875 76.69265625 -46 76.09765625 C-48.31 76.09765625 -50.62 76.09765625 -53 76.09765625 C-53.33 76.75765625 -53.66 77.41765625 -54 78.09765625 C-54.375 75.84765625 -54.375 75.84765625 -54 73.09765625 C-51.0625 70.97265625 -51.0625 70.97265625 -48 69.09765625 C-46.72553565 65.2742632 -47.65721849 63.82760488 -49 60.09765625 C-50.94628852 53.5510494 -49.09585898 46.67281016 -48 40.09765625 C-54.27 40.42765625 -60.54 40.75765625 -67 41.09765625 C-65.36795732 48.59424943 -65.36795732 48.59424943 -63.0625 55.72265625 C-62.71703125 56.64433594 -62.3715625 57.56601563 -62.015625 58.515625 C-61.1529367 60.7088441 -60.2557945 62.87575168 -59.3125 65.03515625 C-58.28806073 67.42551455 -57.50727993 69.56125661 -57 72.09765625 C-58.66666667 72.09765625 -60.33333333 72.09765625 -62 72.09765625 C-63.6446674 74.56092337 -63.6446674 74.56092337 -65 77.09765625 C-67.21585882 74.88179743 -67.40438724 74.07572003 -68 71.09765625 C-68.16242188 70.29328125 -68.32484375 69.48890625 -68.4921875 68.66015625 C-68.65976563 67.81453125 -68.82734375 66.96890625 -69 66.09765625 C-69.18820313 65.27265625 -69.37640625 64.44765625 -69.5703125 63.59765625 C-70.8119505 58.00154133 -71.21054125 52.81736031 -71 47.09765625 C-71 46.10765625 -71 45.11765625 -71 44.09765625 C-71 43.10765625 -71 42.11765625 -71 41.09765625 C-71.77085938 41.10925781 -72.54171875 41.12085938 -73.3359375 41.1328125 C-74.84027344 41.14634766 -74.84027344 41.14634766 -76.375 41.16015625 C-77.37273437 41.17175781 -78.37046875 41.18335938 -79.3984375 41.1953125 C-82 41.09765625 -82 41.09765625 -84 40.09765625 C-84 39.10765625 -84 38.11765625 -84 37.09765625 C-82.375 35.9140625 -82.375 35.9140625 -80 34.66015625 C-75.03105896 31.83689429 -70.53673298 28.61585209 -66 25.16015625 C-60.7217401 21.14103857 -55.4153256 17.21852193 -49.91796875 13.5 C-47.96035204 12.16016737 -47.96035204 12.16016737 -46.42578125 10.4140625 C-45 9.09765625 -45 9.09765625 -42 9.09765625 C-42 8.43765625 -42 7.77765625 -42 7.09765625 C-41.34 7.09765625 -40.68 7.09765625 -40 7.09765625 C-40 6.43765625 -40 5.77765625 -40 5.09765625 C-34.84380931 1.76761643 -30.82784696 0.80040858 -24.6875 0.47485352 C-23.9867334 0.43746598 -23.2859668 0.40007845 -22.56396484 0.36155796 C-15.04496049 -0.00709706 -7.5260401 -0.02913788 0 0 Z " fill="#038843" transform="translate(159,29.90234375)"/>
<path d="M0 0 C0.66 0.33 1.32 0.66 2 1 C1.67 1.66 1.34 2.32 1 3 C0.34 3 -0.32 3 -1 3 C-1 3.66 -1 4.32 -1 5 C-2.94982535 6.40568804 -4.95950578 7.7295036 -7 9 C-7.9075 9.5775 -8.815 10.155 -9.75 10.75 C-12 12 -12 12 -14 12 C-14 13.65 -14 15.3 -14 17 C-15.32 17 -16.64 17 -18 17 C-18.33 17.66 -18.66 18.32 -19 19 C-20.97888961 19.72693904 -22.97954558 20.39816251 -25 21 C-25 21.66 -25 22.32 -25 23 C-23.68 22.67 -22.36 22.34 -21 22 C-21 22.66 -21 23.32 -21 24 C-19.19747131 24.70194993 -19.19747131 24.70194993 -17 25 C-16.46375 24.67 -15.9275 24.34 -15.375 24 C-11.84887985 22.51531783 -8.47238593 23.04616732 -4.75 23.375 C-4.00492188 23.43171875 -3.25984375 23.4884375 -2.4921875 23.546875 C-0.66064892 23.68776258 1.16981352 23.84251884 3 24 C2.67 24.66 2.34 25.32 2 26 C-3.94 26.33 -9.88 26.66 -16 27 C-14.35687204 35.35256715 -11.71900024 43.13928621 -8.3125 50.9375 C-7.28806073 53.3278583 -6.50727993 55.46360036 -6 58 C-7.66666667 58 -9.33333333 58 -11 58 C-12.6446674 60.46326712 -12.6446674 60.46326712 -14 63 C-16.21585882 60.78414118 -16.40438724 59.97806378 -17 57 C-17.24363281 55.7934375 -17.24363281 55.7934375 -17.4921875 54.5625 C-17.65976563 53.716875 -17.82734375 52.87125 -18 52 C-18.18820313 51.175 -18.37640625 50.35 -18.5703125 49.5 C-19.8119505 43.90388508 -20.21054125 38.71970406 -20 33 C-20 32.01 -20 31.02 -20 30 C-20 29.01 -20 28.02 -20 27 C-20.77085938 27.01160156 -21.54171875 27.02320312 -22.3359375 27.03515625 C-23.84027344 27.04869141 -23.84027344 27.04869141 -25.375 27.0625 C-26.37273437 27.07410156 -27.37046875 27.08570312 -28.3984375 27.09765625 C-31 27 -31 27 -33 26 C-33 25.01 -33 24.02 -33 23 C-31.375 21.81640625 -31.375 21.81640625 -29 20.5625 C-21.83228033 16.49295303 -15.45517312 11.42950756 -8.91650391 6.44091797 C-5.98435208 4.23638802 -2.99550608 2.11744593 0 0 Z " fill="#128042" transform="translate(108,44)"/>
<path d="M0 0 C0.99 0.33 1.98 0.66 3 1 C-1.75 5 -1.75 5 -4 5 C-4 5.66 -4 6.32 -4 7 C-5.61838719 8.71358643 -7.29671681 10.3707726 -9 12 C-10.0625509 13.10411768 -11.12505115 14.20828412 -12.1875 15.3125 C-15 18 -15 18 -17 18 C-17 18.66 -17 19.32 -17 20 C-18.43709507 21.20314936 -19.878186 22.40200913 -21.34375 23.5703125 C-23.91114995 25.78651151 -25.87570814 28.3589885 -28 31 C-29.6875 32.875 -29.6875 32.875 -31 34 C-31.66 34 -32.32 34 -33 34 C-33.21914062 34.52722656 -33.43828125 35.05445313 -33.6640625 35.59765625 C-35.49446944 38.8891775 -37.91696783 41.60752876 -40.375 44.4375 C-47.1707465 52.08519032 -47.1707465 52.08519032 -52 61 C-52.98020375 62.0194119 -53.97803008 63.02246356 -55 64 C-55.495 65.485 -55.495 65.485 -56 67 C-56.66 67 -57.32 67 -58 67 C-58.268125 67.7425 -58.53625 68.485 -58.8125 69.25 C-59.95297649 71.89110345 -61.28677072 73.71569429 -63 76 C-63.68132451 77.66072849 -64.34742127 79.327767 -65 81 C-67.34508076 85.69016153 -67.34508076 85.69016153 -69.7421875 86.82421875 C-73.06096348 87.08260096 -74.90887444 85.71982324 -77.75 84.0625 C-78.73484375 83.49660156 -79.7196875 82.93070312 -80.734375 82.34765625 C-81.48203125 81.90292969 -82.2296875 81.45820313 -83 81 C-83 80.01 -83 79.02 -83 78 C-84.99834111 76.15667058 -84.99834111 76.15667058 -87.5 74.4375 C-89.03357952 73.3370147 -90.54284143 72.19984287 -92 71 C-92 70.34 -92 69.68 -92 69 C-89.16661778 70.37840216 -86.44311194 71.86418386 -83.75 73.5 C-83.04359375 73.9228125 -82.3371875 74.345625 -81.609375 74.78125 C-81.07828125 75.1834375 -80.5471875 75.585625 -80 76 C-80 76.66 -80 77.32 -80 78 C-79.34 78 -78.68 78 -78 78 C-77.34 79.32 -76.68 80.64 -76 82 C-75.34 82 -74.68 82 -74 82 C-74 82.66 -74 83.32 -74 84 C-71.6147267 84.12815365 -71.6147267 84.12815365 -69 83 C-66.94304343 80.00985547 -65 76.686098 -65 73 C-64.5875 72.608125 -64.175 72.21625 -63.75 71.8125 C-61.21580866 69.18780183 -59.74974638 66.19781235 -58 63 C-57.34 63 -56.68 63 -56 63 C-55.67 62.01 -55.34 61.02 -55 60 C-54.34 60 -53.68 60 -53 60 C-52.79375 59.175 -52.5875 58.35 -52.375 57.5 C-50.64979213 53.10856178 -48.22530939 49.45318451 -45 46 C-44.34 46 -43.68 46 -43 46 C-43 45.01 -43 44.02 -43 43 C-42.34 42.34 -41.68 41.68 -41 41 C-39.50235443 39.19364754 -38.01524205 37.37936426 -36.53515625 35.55859375 C-35 34 -35 34 -32 33 C-31.31379969 31.67661368 -30.65213539 30.34050052 -30 29 C-28.43955895 26.85832084 -26.79050671 24.96955738 -25 23 C-24.34 23 -23.68 23 -23 23 C-22.505 21.515 -22.505 21.515 -22 20 C-21.34 20 -20.68 20 -20 20 C-20 19.34 -20 18.68 -20 18 C-19.195625 17.731875 -18.39125 17.46375 -17.5625 17.1875 C-16.2940625 16.5996875 -16.2940625 16.5996875 -15 16 C-14.67 15.01 -14.34 14.02 -14 13 C-13.34 13 -12.68 13 -12 13 C-11.7215625 11.9171875 -11.7215625 11.9171875 -11.4375 10.8125 C-9.71814907 7.44855253 -7.87043416 6.21682371 -4.75390625 4.2109375 C-2.94779861 2.96395895 -1.50457939 1.59200143 0 0 Z " fill="#117D3E" transform="translate(228,74)"/>
<path d="M0 0 C-1.32265259 3.96795776 -3.90186749 5.55090623 -7.24609375 7.75390625 C-9.0630257 8.96407858 -9.0630257 8.96407858 -10.59765625 10.65234375 C-12 12 -12 12 -14 12 C-14.33 12.66 -14.66 13.32 -15 14 C-18.57692308 17 -18.57692308 17 -21 17 C-21 17.66 -21 18.32 -21 19 C-21.66 19 -22.32 19 -23 19 C-23.309375 19.8353125 -23.309375 19.8353125 -23.625 20.6875 C-25.51040088 23.85840149 -28.15359359 25.68729479 -31 28 C-31.66 28.99 -32.32 29.98 -33 31 C-33.66 31 -34.32 31 -35 31 C-35.33 30.01 -35.66 29.02 -36 28 C-37.65 28 -39.3 28 -41 28 C-41.33 28.66 -41.66 29.32 -42 30 C-42 28.68 -42 27.36 -42 26 C-41.34 26 -40.68 26 -40 26 C-40 25.34 -40 24.68 -40 24 C-37.8828125 22.4921875 -37.8828125 22.4921875 -35.125 20.875 C-34.22007812 20.33617188 -33.31515625 19.79734375 -32.3828125 19.2421875 C-30 18 -30 18 -28 18 C-27.67 17.34 -27.34 16.68 -27 16 C-25.35636866 15.27840576 -23.68949614 14.60648579 -22 14 C-22 13.34 -22 12.68 -22 12 C-18.69620273 10.08379758 -15.44492945 8.21319536 -12 6.5625 C-9.52677765 5.27436336 -7.4815618 3.95389669 -5.25 2.3125 C-2 0 -2 0 0 0 Z " fill="#0C8140" transform="translate(326,5)"/>
<path d="M0 0 C1.98270912 0.95098266 3.96108379 1.91100703 5.9375 2.875 C7.03964844 3.40867187 8.14179687 3.94234375 9.27734375 4.4921875 C12 6 12 6 13 8 C17.66442276 9.87027136 17.66442276 9.87027136 22.4375 9.125 C22.953125 8.75375 23.46875 8.3825 24 8 C25.7074998 9.28062485 27.37373596 10.61767557 29 12 C29 12.66 29 13.32 29 14 C29.99 14 30.98 14 32 14 C32 14.66 32 15.32 32 16 C34.8424854 17.57273568 34.8424854 17.57273568 38 18 C38.99 18.33 39.98 18.66 41 19 C41.1546875 20.175625 41.1546875 20.175625 41.3125 21.375 C41.77595022 24.33045181 41.77595022 24.33045181 45 26 C44.505 27.485 44.505 27.485 44 29 C41.5 27.625 41.5 27.625 39 26 C39 25.34 39 24.68 39 24 C34.545 23.01 34.545 23.01 30 22 C29.67 20.68 29.34 19.36 29 18 C28.4225 17.896875 27.845 17.79375 27.25 17.6875 C24.64338842 16.89103535 23.0264689 15.80934723 21 14 C21 13.34 21 12.68 21 12 C19.576875 11.9071875 19.576875 11.9071875 18.125 11.8125 C11.51782507 10.87054023 4.07999597 7.37817651 0 2 C0 1.34 0 0.68 0 0 Z " fill="#1B7E43" transform="translate(82,109)"/>
<path d="M0 0 C3.64681902 1.07219211 7.36997838 1.8212174 11.0859375 2.61328125 C11.0859375 3.27328125 11.0859375 3.93328125 11.0859375 4.61328125 C12.0759375 4.28328125 13.0659375 3.95328125 14.0859375 3.61328125 C17.93845092 4.86274506 21.48587188 6.77138721 25.0859375 8.61328125 C25.0859375 9.27328125 25.0859375 9.93328125 25.0859375 10.61328125 C22.7759375 10.94328125 20.4659375 11.27328125 18.0859375 11.61328125 C17.7559375 12.60328125 17.4259375 13.59328125 17.0859375 14.61328125 C11.18821773 13.48393066 7.67859509 11.02074332 3.1015625 7.171875 C1.07186379 5.42516998 1.07186379 5.42516998 -1.9140625 4.61328125 C-1.9140625 3.95328125 -1.9140625 3.29328125 -1.9140625 2.61328125 C-3.2340625 2.61328125 -4.5540625 2.61328125 -5.9140625 2.61328125 C-6.2440625 1.62328125 -6.5740625 0.63328125 -6.9140625 -0.38671875 C-4.2202071 -1.73364645 -2.76155117 -0.85643043 0 0 Z " fill="#07803E" transform="translate(10.9140625,82.38671875)"/>
<path d="M0 0 C2.5 1.375 2.5 1.375 5 3 C5 3.66 5 4.32 5 5 C5.66 5 6.32 5 7 5 C7 5.66 7 6.32 7 7 C8.0828125 7.3403125 8.0828125 7.3403125 9.1875 7.6875 C12.58457087 9.27279974 14.5749552 11.15923323 17 14 C17 14.99 17 15.98 17 17 C18.65 17.66 20.3 18.32 22 19 C22 19.66 22 20.32 22 21 C22.66 21 23.32 21 24 21 C25.70993434 22.6222454 27.37347684 24.29413425 29 26 C29.75216797 26.72316406 29.75216797 26.72316406 30.51953125 27.4609375 C31.99433771 28.99411361 33.08906282 30.53430397 34.25 32.3125 C37.30184168 36.68154995 41.19540901 40.59770451 46 43 C46 43.66 46 44.32 46 45 C46.66 45 47.32 45 48 45 C48.45375 46.0725 48.9075 47.145 49.375 48.25 C50.50088537 50.88062317 51.67920206 53.46000396 53 56 C51 56 51 56 49.4921875 54.57421875 C48.95851562 53.95160156 48.42484375 53.32898438 47.875 52.6875 C47.33617187 52.07261719 46.79734375 51.45773438 46.2421875 50.82421875 C45 49 45 49 45 46 C43.68 45.34 42.36 44.68 41 44 C41 43.34 41 42.68 41 42 C40.34 42 39.68 42 39 42 C34 36.52380952 34 36.52380952 34 34 C33.443125 33.773125 32.88625 33.54625 32.3125 33.3125 C29.33840412 31.62449964 27.27991135 29.53323483 25 27 C25 26.34 25 25.68 25 25 C24.41992188 24.73574219 23.83984375 24.47148437 23.2421875 24.19921875 C17.28146992 21.01116945 12.67606358 15.80534362 8.44921875 10.62890625 C6.97480745 8.97168385 5.43675533 7.67118526 3.6875 6.3125 C1 4 1 4 0.125 1.6875 C0.08375 1.130625 0.0425 0.57375 0 0 Z " fill="#167C40" transform="translate(36,104)"/>
<path d="M0 0 C0.66 0.33 1.32 0.66 2 1 C0.25898994 7.08034573 -1.70648563 13.02537524 -3.8984375 18.95703125 C-8.52811204 31.74609674 -12.88377101 44.7560268 -16 58 C-16.66 58 -17.32 58 -18 58 C-18.64687807 55.27107717 -19.29253718 52.54187553 -19.9375 49.8125 C-20.11990234 49.04357422 -20.30230469 48.27464844 -20.49023438 47.48242188 C-21.39120113 43.66559908 -22.26637997 39.85343574 -23 36 C-22.01 35.505 -22.01 35.505 -21 35 C-20.01 38.96 -19.02 42.92 -18 47 C-15.01364565 42.52046848 -12.78918889 38.36648445 -12 33 C-11.34 33 -10.68 33 -10 33 C-10.061875 31.96875 -10.12375 30.9375 -10.1875 29.875 C-9.98096299 25.60656842 -8.94814348 23.75198004 -7 20 C-6.48876337 18.23815764 -6.01267166 16.46592539 -5.5625 14.6875 C-4.22776467 9.5047511 -2.33738522 4.80528434 0 0 Z " fill="#117A3C" transform="translate(177,241)"/>
<path d="M0 0 C0.66 0 1.32 0 2 0 C0.10806758 7.50286343 -4.85909085 10.73300104 -11 15 C-20.21647893 20.1657447 -30.7270561 21.77905979 -41.08203125 19.24609375 C-46.21975151 17.45386575 -50.66303669 15.28202629 -55 12 C-54.67 11.01 -54.34 10.02 -54 9 C-53.55011719 9.32613281 -53.10023437 9.65226562 -52.63671875 9.98828125 C-44.83067313 15.29138639 -35.49270281 18.39246271 -26 17 C-21.57280774 15.92106184 -17.22296498 14.7218637 -13 13 C-12.67 12.34 -12.34 11.68 -12 11 C-11.4225 10.731875 -10.845 10.46375 -10.25 10.1875 C-6.46166661 8.18810182 -3.81638387 5.11874826 -1.3125 1.6875 C-0.879375 1.130625 -0.44625 0.57375 0 0 Z " fill="#0F793B" transform="translate(179,102)"/>
<path d="M0 0 C-0.33 1.32 -0.66 2.64 -1 4 C-2.65 4.33 -4.3 4.66 -6 5 C-6 5.66 -6 6.32 -6 7 C-10.38461538 10 -10.38461538 10 -13 10 C-13 10.66 -13 11.32 -13 12 C-13.969375 12.268125 -14.93875 12.53625 -15.9375 12.8125 C-16.948125 13.204375 -17.95875 13.59625 -19 14 C-19.33 14.99 -19.66 15.98 -20 17 C-21.65 17.33 -23.3 17.66 -25 18 C-24.34 17.67 -23.68 17.34 -23 17 C-22.731875 16.38253906 -22.46375 15.76507813 -22.1875 15.12890625 C-20.61310208 12.30638366 -18.8166916 11.47276069 -16 9.9375 C-12.62702245 8.08922597 -11.17383334 7.26075 -9 4 C-15.27 3.67 -21.54 3.34 -28 3 C-28 2.67 -28 2.34 -28 2 C-18.63873691 0.77085408 -9.46576558 -0.36799953 0 0 Z " fill="#0A7136" transform="translate(209,30)"/>
<path d="M0 0 C0.99 0.33 1.98 0.66 3 1 C3.38345325 2.31979259 3.70602561 3.65743978 4 5 C4.94267652 6.76992326 5.92585243 8.51857384 6.9375 10.25 C12.0768539 19.5797144 13.63905455 28.93945731 11.1875 39.5 C10.02427452 41.94889575 8.74894443 43.93306567 7 46 C6.34 45.01 5.68 44.02 5 43 C5.66 43 6.32 43 7 43 C8.81934362 37.6336415 9.25958146 33.19882504 8.875 27.5625 C8.82714355 26.81258789 8.77928711 26.06267578 8.72998047 25.29003906 C8.27030472 19.66851107 7.12283926 15.7761071 4 11 C1.58410007 7.24193344 0.51940091 4.46684784 0 0 Z " fill="#11783B" transform="translate(175,54)"/>
<path d="M0 0 C0.33 0 0.66 0 1 0 C0.63018468 6.4101322 -1.2356723 11.41261341 -3.84375 17.265625 C-4.80081979 19.52896571 -5.49799904 21.60408633 -6 24 C-6.66 24 -7.32 24 -8 24 C-8.11730469 24.67417969 -8.23460937 25.34835938 -8.35546875 26.04296875 C-9.11901882 29.54604393 -10.17814078 32.91624813 -11.3125 36.3125 C-11.53252686 36.97386963 -11.75255371 37.63523926 -11.97924805 38.31665039 C-13.61923614 43.13252601 -15.54845583 47.55090131 -18 52 C-19.37275487 47.63130039 -18.07685755 46.07954162 -16 42 C-14.88874182 38.36266226 -13.96104616 34.67943388 -13 31 C-12.08122018 27.89911812 -11.23325513 25.38537804 -9.5625 22.625 C-7.91154511 19.85139579 -6.90558885 17.14778572 -5.82421875 14.12109375 C-4.71025009 11.25434027 -3.31269972 8.5711111 -1.8671875 5.859375 C-0.96568924 3.92643279 -0.4510003 2.08012385 0 0 Z " fill="#0F7B3C" transform="translate(198,187)"/>
<path d="M0 0 C0 0.33 0 0.66 0 1 C-0.58215775 1.01030746 -1.16431549 1.02061493 -1.76411438 1.03123474 C-7.81478134 1.13928566 -13.86529895 1.25388492 -19.91577148 1.37231445 C-22.17485433 1.4156678 -24.43397003 1.45734258 -26.69311523 1.49731445 C-29.93743804 1.55500713 -33.1815954 1.61870469 -36.42578125 1.68359375 C-37.94465691 1.70866249 -37.94465691 1.70866249 -39.49421692 1.73423767 C-40.43496567 1.75418289 -41.37571442 1.77412811 -42.3449707 1.79467773 C-43.58740288 1.81799416 -43.58740288 1.81799416 -44.85493469 1.84178162 C-47.18553247 1.92540723 -47.18553247 1.92540723 -50 3 C-50.33 3.66 -50.66 4.32 -51 5 C-51.99 4.67 -52.98 4.34 -54 4 C-53.34 4 -52.68 4 -52 4 C-51.67 3.01 -51.34 2.02 -51 1 C-40.30018022 -6.58011329 -12.03835737 -2.69120963 0 0 Z " fill="#19773F" transform="translate(174,32)"/>
<path d="M0 0 C1 3 1 3 -0.25 5.8125 C-1.11625 7.3903125 -1.11625 7.3903125 -2 9 C-2.495 9.99 -2.99 10.98 -3.5 12 C-5 15 -6.5 18 -8 21 C-8.75796875 22.51787109 -8.75796875 22.51787109 -9.53125 24.06640625 C-10.4436826 25.88884476 -11.35968726 27.70950506 -12.28125 29.52734375 C-14.69110749 34.29299142 -16.96121208 39.06398714 -19 44 C-19.66 43.67 -20.32 43.34 -21 43 C-20.54235318 40.52870715 -19.91847132 38.86802263 -18.5859375 36.7109375 C-16.47935811 33.11003579 -15.2923328 29.36559814 -13.96484375 25.42578125 C-13 23 -13 23 -11 21 C-9.28032118 17.26156778 -7.81726707 13.49949743 -6.4375 9.625 C-5 6 -5 6 -3 5 C-2.67 4.01 -2.34 3.02 -2 2 C-1.34 2 -0.68 2 0 2 C0 1.34 0 0.68 0 0 Z " fill="#117A3C" transform="translate(225,133)"/>
<path d="M0 0 C0 0.66 0 1.32 0 2 C-0.66 2 -1.32 2 -2 2 C-2.33 3.32 -2.66 4.64 -3 6 C-3.66 6 -4.32 6 -5 6 C-5.07476562 6.68191406 -5.14953125 7.36382812 -5.2265625 8.06640625 C-6.22511369 11.85384032 -8.19949892 14.7396511 -10.375 17.9375 C-13.22784062 22.18455144 -15.80360994 26.35924035 -18 31 C-18.66 31 -19.32 31 -20 31 C-20.226875 31.886875 -20.45375 32.77375 -20.6875 33.6875 C-22.17188513 37.43380532 -24.02403485 39.33729434 -27 42 C-25.45650066 36.52759326 -24.2022321 32.94755137 -20 29 C-18.87623698 27.00583144 -17.8937687 24.97790698 -16.9296875 22.90234375 C-16 21 -16 21 -14 18 C-13.34 18 -12.68 18 -12 18 C-12 16.68 -12 15.36 -12 14 C-11.34 14 -10.68 14 -10 14 C-9.731875 13.29875 -9.46375 12.5975 -9.1875 11.875 C-4.2826087 0 -4.2826087 0 0 0 Z " fill="#117B3C" transform="translate(261,75)"/>
<path d="M0 0 C-1.2983339 2.89628331 -2.45322053 5.0679604 -5 7 C-6.7634375 7.4640625 -6.7634375 7.4640625 -8.5625 7.9375 C-12.0396592 8.59341566 -12.0396592 8.59341566 -13.125 10.875 C-13.558125 11.926875 -13.558125 11.926875 -14 13 C-16.41877183 15.2226552 -18.41621492 16.78108059 -21.5 17.9375 C-24.76611321 19.32559811 -26.56911073 21.44444974 -29 24 C-32.62068966 27 -32.62068966 27 -35 27 C-33.86280581 23.58841744 -32.95657056 22.88145399 -30 21 C-29.34 21 -28.68 21 -28 21 C-28 20.34 -28 19.68 -28 19 C-26.26451831 17.55473264 -24.46024037 16.1912778 -22.625 14.875 C-21.62726563 14.15054688 -20.62953125 13.42609375 -19.6015625 12.6796875 C-17 11 -17 11 -15 11 C-15 10.34 -15 9.68 -15 9 C-9.58823529 5 -9.58823529 5 -7 5 C-7 4.34 -7 3.68 -7 3 C-2.61538462 0 -2.61538462 0 0 0 Z " fill="#0F7A3C" transform="translate(273,40)"/>
<path d="M0 0 C0.66 0.66 1.32 1.32 2 2 C3.98 1.34 5.96 0.68 8 0 C8.8125 2 8.8125 2 9 5 C7.03338017 9.26780984 4.92424629 12.38383581 1 15 C0.67 13.68 0.34 12.36 0 11 C0.66 11 1.32 11 2 11 C1.67 9.35 1.34 7.7 1 6 C-1.97 5.505 -1.97 5.505 -5 5 C-5 4.34 -5 3.68 -5 3 C-4.34 3 -3.68 3 -3 3 C-1.37485532 1.54166642 -1.37485532 1.54166642 0 0 Z " fill="#108543" transform="translate(282,32)"/>
<path d="M0 0 C-1.32265259 3.96795776 -3.90186749 5.55090623 -7.24609375 7.75390625 C-9.0630257 8.96407858 -9.0630257 8.96407858 -10.59765625 10.65234375 C-12 12 -12 12 -14 12 C-14.33 12.66 -14.66 13.32 -15 14 C-17.3125 15.25 -17.3125 15.25 -20 16 C-22.3125 15.125 -22.3125 15.125 -24 14 C-23.34 14 -22.68 14 -22 14 C-22 13.34 -22 12.68 -22 12 C-18.69620273 10.08379758 -15.44492945 8.21319536 -12 6.5625 C-9.52677765 5.27436336 -7.4815618 3.95389669 -5.25 2.3125 C-2 0 -2 0 0 0 Z " fill="#217C45" transform="translate(326,5)"/>
<path d="M0 0 C1.8125 0.1875 1.8125 0.1875 4 1 C5.5 3.25 5.5 3.25 7 6 C7.639375 6.78375 8.27875 7.5675 8.9375 8.375 C11.99167807 12.26213573 14.42789446 16.28368337 16 21 C16.66 21 17.32 21 18 21 C19.5078125 22.828125 19.5078125 22.828125 21.125 25.25 C21.66382812 26.03890625 22.20265625 26.8278125 22.7578125 27.640625 C24 30 24 30 24 34 C23.34 34 22.68 34 22 34 C21.63648437 33.29875 21.27296875 32.5975 20.8984375 31.875 C17.99913274 26.40349153 15.00485222 21.37265107 11.1015625 16.55859375 C10 15 10 15 10 13 C9.34 12.67 8.68 12.34 8 12 C4 7.41176471 4 7.41176471 4 5 C3.34 5 2.68 5 2 5 C2 4.01 2 3.02 2 2 C1.34 2 0.68 2 0 2 C0 1.34 0 0.68 0 0 Z " fill="#167B3F" transform="translate(95,168)"/>
<path d="M0 0 C0.66 0.99 1.32 1.98 2 3 C3.61299717 5.02543442 5.22730647 7.04922206 6.85546875 9.0625 C7.23316406 9.701875 7.61085938 10.34125 8 11 C7.67 11.99 7.34 12.98 7 14 C4.37812506 12.95125002 3.20628639 12.35068687 1.75 9.875 C1.5025 9.25625 1.255 8.6375 1 8 C-1.31 8 -3.62 8 -6 8 C-6.33 8.66 -6.66 9.32 -7 10 C-7.4375 7.8125 -7.4375 7.8125 -7 5 C-4.86004673 3.01558218 -2.49824035 1.4976696 0 0 Z " fill="#FBF9FF" transform="translate(112,98)"/>
<path d="M0 0 C0.33 0.99 0.66 1.98 1 3 C0.34 3 -0.32 3 -1 3 C-1.25265625 3.55300781 -1.5053125 4.10601562 -1.765625 4.67578125 C-3.20459211 7.38522882 -4.91777521 9.72677949 -6.75 12.1875 C-9.93354748 16.48615577 -12.88656594 20.85452479 -15.67578125 25.41796875 C-16.11277344 25.94003906 -16.54976563 26.46210937 -17 27 C-17.99 27 -18.98 27 -20 27 C-19 25 -19 25 -18 23 C-17.67 22.278125 -17.34 21.55625 -17 20.8125 C-16 19 -16 19 -14 18 C-12.96210419 16.35666496 -11.96432076 14.68756133 -11 13 C-10.34 12.01 -9.68 11.02 -9 10 C-8.34 10 -7.68 10 -7 10 C-6.731875 9.443125 -6.46375 8.88625 -6.1875 8.3125 C-2.58181818 1.29090909 -2.58181818 1.29090909 0 0 Z " fill="#11793C" transform="translate(281,46)"/>
<path d="M0 0 C1.2684375 0.433125 1.2684375 0.433125 2.5625 0.875 C1.5725 1.865 0.5825 2.855 -0.4375 3.875 C3.0275 5.855 3.0275 5.855 6.5625 7.875 C5.5725 8.535 4.5825 9.195 3.5625 9.875 C3.01980469 9.45347656 2.47710937 9.03195313 1.91796875 8.59765625 C1.20253906 8.04980469 0.48710937 7.50195312 -0.25 6.9375 C-1.31154297 6.11958984 -1.31154297 6.11958984 -2.39453125 5.28515625 C-4.47875052 3.70643752 -4.47875052 3.70643752 -7.4375 2.875 C-7.4375 2.215 -7.4375 1.555 -7.4375 0.875 C-8.7575 0.875 -10.0775 0.875 -11.4375 0.875 C-11.7675 -0.115 -12.0975 -1.105 -12.4375 -2.125 C-8.59536383 -4.04606808 -3.89387369 -1.27435866 0 0 Z " fill="#19783E" transform="translate(16.4375,84.125)"/>
<path d="M0 0 C3.24271506 0.5590888 4.93057424 1.4132178 7 4 C7 4.66 7 5.32 7 6 C7.99 6 8.98 6 10 6 C10 6.66 10 7.32 10 8 C12.8424854 9.57273568 12.8424854 9.57273568 16 10 C16.99 10.33 17.98 10.66 19 11 C18.34 12.32 17.68 13.64 17 15 C14.18251399 13.21608204 11.37191889 11.42159081 8.5625 9.625 C7.76005859 9.11710937 6.95761719 8.60921875 6.13085938 8.0859375 C5.36708984 7.59609375 4.60332031 7.10625 3.81640625 6.6015625 C2.75595093 5.92601318 2.75595093 5.92601318 1.67407227 5.23681641 C0 4 0 4 -1 2 C-0.67 1.34 -0.34 0.68 0 0 Z " fill="#E0E8EF" transform="translate(104,117)"/>
<path d="M0 0 C2.42130331 2.42130331 2.52840504 3.80111377 3.125 7.125 C3.29257813 8.03507812 3.46015625 8.94515625 3.6328125 9.8828125 C3.81457031 10.93082031 3.81457031 10.93082031 4 12 C4.99 11.01 5.98 10.02 7 9 C6.67 13.62 6.34 18.24 6 23 C5.34 23 4.68 23 4 23 C3.35312193 20.27107717 2.70746282 17.54187553 2.0625 14.8125 C1.88009766 14.04357422 1.69769531 13.27464844 1.50976562 12.48242188 C1.00004439 10.32305738 0.49820398 8.16204712 0 6 C-0.22816406 5.01386719 -0.45632812 4.02773438 -0.69140625 3.01171875 C-0.79324219 2.34785156 -0.89507812 1.68398438 -1 1 C-0.67 0.67 -0.34 0.34 0 0 Z " fill="#1F8247" transform="translate(155,276)"/>
<path d="M0 0 C0.84046875 0.06123047 1.6809375 0.12246094 2.546875 0.18554688 C4.61570599 0.33835825 6.68305508 0.51100162 8.75 0.6875 C8.42 1.3475 8.09 2.0075 7.75 2.6875 C1.81 3.0175 -4.13 3.3475 -10.25 3.6875 C-10.25 5.3375 -10.25 6.9875 -10.25 8.6875 C-11.24 8.3575 -12.23 8.0275 -13.25 7.6875 C-13.5 5.375 -13.5 5.375 -13.25 2.6875 C-9.64358055 -1.54612284 -5.02710947 -0.44379951 0 0 Z " fill="#0B7136" transform="translate(102.25,67.3125)"/>
<path d="M0 0 C1.65 0.33 3.3 0.66 5 1 C4.01 1.495 4.01 1.495 3 2 C3 2.66 3 3.32 3 4 C2.34 4 1.68 4 1 4 C0.6596875 4.8971875 0.6596875 4.8971875 0.3125 5.8125 C-1.33811133 8.56351888 -3.1972081 9.52484637 -6 11 C-6 10.01 -6 9.02 -6 8 C-6.66 8 -7.32 8 -8 8 C-8 7.34 -8 6.68 -8 6 C-7.05125 5.566875 -6.1025 5.13375 -5.125 4.6875 C-1.79958063 3.20697799 -1.79958063 3.20697799 0 0 Z " fill="#0D7B3C" transform="translate(302,20)"/>
<path d="M0 0 C0.66 0.33 1.32 0.66 2 1 C1.67 1.66 1.34 2.32 1 3 C0.34 3 -0.32 3 -1 3 C-1 3.66 -1 4.32 -1 5 C-2.94982535 6.40568804 -4.95950578 7.7295036 -7 9 C-7.9075 9.5775 -8.815 10.155 -9.75 10.75 C-12 12 -12 12 -14 12 C-14.66 13.32 -15.32 14.64 -16 16 C-16.66 16 -17.32 16 -18 16 C-16.45571519 11.81517881 -13.67065751 9.99921588 -10.125 7.4375 C-9.07570313 6.67308594 -8.02640625 5.90867187 -6.9453125 5.12109375 C-5.97335938 4.42113281 -5.00140625 3.72117188 -4 3 C-2.66404316 2.0035076 -1.3294699 1.00513062 0 0 Z " fill="#12783B" transform="translate(108,44)"/>
<path d="M0 0 C3 1 3 1 4.09765625 3.0390625 C4.41605469 3.89242187 4.73445312 4.74578125 5.0625 5.625 C5.40152344 6.52347656 5.74054688 7.42195312 6.08984375 8.34765625 C6.85442291 10.57576461 7.52404502 12.78644214 8.125 15.0625 C8.41375 16.031875 8.7025 17.00125 9 18 C9.66 18.33 10.32 18.66 11 19 C10.34 19.33 9.68 19.66 9 20 C5.72345675 17.32366437 4.39213274 13.80671988 2.8125 10 C2.40354492 9.05640625 2.40354492 9.05640625 1.98632812 8.09375 C0.77503463 5.2279328 0 3.14296477 0 0 Z " fill="#10783B" transform="translate(139,238)"/>
<path d="M0 0 C6.31311276 1.34321548 10.79608336 4.24751589 16 8 C15.67 8.99 15.34 9.98 15 11 C12.5 9.625 12.5 9.625 10 8 C10 7.34 10 6.68 10 6 C5.545 5.01 5.545 5.01 1 4 C0.67 2.68 0.34 1.36 0 0 Z " fill="#117B3E" transform="translate(111,127)"/>
<path d="M0 0 C1.67542976 0.28604898 3.34385343 0.61781233 5 1 C5.28875 2.216875 5.5775 3.43375 5.875 4.6875 C6.67835792 7.91814648 7.66265409 10.94320935 9 14 C7.68 13.67 6.36 13.34 5 13 C4.67 10.69 4.34 8.38 4 6 C2.68 6 1.36 6 0 6 C-0.38218767 4.34385343 -0.71395102 2.67542976 -1 1 C-0.67 0.67 -0.34 0.34 0 0 Z " fill="#1E8447" transform="translate(88,74)"/>
<path d="M0 0 C-1.34572592 4.03717777 -4.03113603 5.62531541 -7.44140625 7.8515625 C-9.15572515 8.93246934 -9.15572515 8.93246934 -10 11 C-12 10 -12 10 -15 8 C-14.154375 7.608125 -13.30875 7.21625 -12.4375 6.8125 C-9.80028705 5.42196954 -7.62425459 4.06457047 -5.25 2.3125 C-2 0 -2 0 0 0 Z " fill="#91C5A6" transform="translate(326,5)"/>
<path d="M0 0 C0.66 0.33 1.32 0.66 2 1 C-0.63675566 3.91926519 -2.23460384 5.09111127 -6 6 C-6.33 6.99 -6.66 7.98 -7 9 C-9.60242414 10.64820195 -10.86248779 11 -14 11 C-14 10.34 -14 9.68 -14 9 C-11.8828125 7.4921875 -11.8828125 7.4921875 -9.125 5.875 C-8.22007812 5.33617187 -7.31515625 4.79734375 -6.3828125 4.2421875 C-4 3 -4 3 -2 3 C-1.67 2.34 -1.34 1.68 -1 1 C-0.67 0.67 -0.34 0.34 0 0 Z " fill="#208046" transform="translate(300,20)"/>
<path d="M0 0 C3.63 0 7.26 0 11 0 C10.67 1.32 10.34 2.64 10 4 C8.35 4.33 6.7 4.66 5 5 C5 5.66 5 6.32 5 7 C4.01 7.33 3.02 7.66 2 8 C2.66 6.02 3.32 4.04 4 2 C2.68 2 1.36 2 0 2 C0 1.34 0 0.68 0 0 Z " fill="#328652" transform="translate(198,30)"/>
<path d="M0 0 C0.66 0.99 1.32 1.98 2 3 C3.61299717 5.02543442 5.22730647 7.04922206 6.85546875 9.0625 C7.23316406 9.701875 7.61085938 10.34125 8 11 C7.67 11.99 7.34 12.98 7 14 C4.41839592 12.99453315 3.1992778 12.31537358 1.69921875 9.94140625 C1.36535156 9.15636719 1.03148438 8.37132813 0.6875 7.5625 C0.34074219 6.78003906 -0.00601563 5.99757813 -0.36328125 5.19140625 C-1 3 -1 3 0 0 Z " fill="#D4E2E7" transform="translate(112,98)"/>
<path d="M0 0 C0.66 0 1.32 0 2 0 C2 0.66 2 1.32 2 2 C2.99 1.67 3.98 1.34 5 1 C8.06942297 1.99756247 10.29811996 3.19874664 13 5 C7.375 7 7.375 7 4 7 C4 6.01 4 5.02 4 4 C2.68 3.67 1.36 3.34 0 3 C0 2.01 0 1.02 0 0 Z " fill="#358F5C" transform="translate(20,85)"/>
<path d="M0 0 C-1.32 0.33 -2.64 0.66 -4 1 C-4 1.66 -4 2.32 -4 3 C-4.969375 3.268125 -5.93875 3.53625 -6.9375 3.8125 C-7.948125 4.204375 -8.95875 4.59625 -10 5 C-10.33 5.99 -10.66 6.98 -11 8 C-12.65 8.33 -14.3 8.66 -16 9 C-15.34 8.67 -14.68 8.34 -14 8 C-13.72027344 7.37738281 -13.44054687 6.75476562 -13.15234375 6.11328125 C-11.69441579 3.43958964 -10.21874679 2.6312072 -7.5625 1.1875 C-6.78003906 0.74792969 -5.99757812 0.30835938 -5.19140625 -0.14453125 C-3 -1 -3 -1 0 0 Z " fill="#107C3C" transform="translate(200,39)"/>
<path d="M0 0 C3 1 3 1 4.1328125 2.70703125 C4.46023437 3.40183594 4.78765625 4.09664062 5.125 4.8125 C5.45757812 5.49957031 5.79015625 6.18664062 6.1328125 6.89453125 C6.96581322 8.91699695 7.53024571 10.86693207 8 13 C7.01 13.495 7.01 13.495 6 14 C3.60457417 9.41845739 1.49170266 4.9723422 0 0 Z " fill="#12793C" transform="translate(129,219)"/>
<path d="M0 0 C0.33 0 0.66 0 1 0 C1.12036664 5.77759884 0.8320582 11.27959989 0 17 C-0.66 16.67 -1.32 16.34 -2 16 C-2.20413361 10.26157749 -2.27141454 5.39460953 0 0 Z " fill="#0D783A" transform="translate(112,70)"/>
<path d="M0 0 C2.97 0.99 5.94 1.98 9 3 C8.67 3.99 8.34 4.98 8 6 C5.69 5.67 3.38 5.34 1 5 C0.67 3.35 0.34 1.7 0 0 Z " fill="#107C3E" transform="translate(55,98)"/>
<path d="M0 0 C0.33 0.66 0.66 1.32 1 2 C0.07421875 4.34765625 0.07421875 4.34765625 -1.3125 7.0625 C-1.98732422 8.41021484 -1.98732422 8.41021484 -2.67578125 9.78515625 C-4 12 -4 12 -6 13 C-5.57674417 11.20491499 -5.13589265 9.4139717 -4.6875 7.625 C-4.44386719 6.62726563 -4.20023438 5.62953125 -3.94921875 4.6015625 C-3 2 -3 2 0 0 Z " fill="#107A3C" transform="translate(233,118)"/>
<path d="M0 0 C3.5 1.1875 3.5 1.1875 5.5 3.1875 C3.52 3.8475 1.54 4.5075 -0.5 5.1875 C-0.5 4.5275 -0.5 3.8675 -0.5 3.1875 C-1.82 3.1875 -3.14 3.1875 -4.5 3.1875 C-4.83 2.1975 -5.16 1.2075 -5.5 0.1875 C-3.5 -0.8125 -3.5 -0.8125 0 0 Z " fill="#78AC8F" transform="translate(9.5,81.8125)"/>
<path d="M0 0 C2.5625 2.25 2.5625 2.25 5 5 C4.8125 7.3125 4.8125 7.3125 4 9 C3.38125 8.79375 2.7625 8.5875 2.125 8.375 C1.42375 8.25125 0.7225 8.1275 0 8 C-0.66 8.66 -1.32 9.32 -2 10 C-1.67 8.68 -1.34 7.36 -1 6 C-0.34 6 0.32 6 1 6 C0.67 4.02 0.34 2.04 0 0 Z " fill="#1B8443" transform="translate(97,94)"/>
<path d="M0 0 C2.77042109 2.77042109 2.39796106 4.76533805 2.625 8.625 C2.69976562 9.81351562 2.77453125 11.00203125 2.8515625 12.2265625 C2.92503906 13.59941406 2.92503906 13.59941406 3 15 C-1.69971671 5.77903683 -1.69971671 5.77903683 0 0 Z " fill="#137A3D" transform="translate(155,276)"/>
<path d="M0 0 C1.8125 0.1875 1.8125 0.1875 4 1 C6.53370588 4.34811134 7 5.70124217 7 10 C5.5 8.625 5.5 8.625 4 7 C4 6.34 4 5.68 4 5 C3.34 5 2.68 5 2 5 C2 4.01 2 3.02 2 2 C1.34 2 0.68 2 0 2 C0 1.34 0 0.68 0 0 Z " fill="#1F8045" transform="translate(95,168)"/>
<path d="M0 0 C0.99 0.66 1.98 1.32 3 2 C1.99088542 3.72526042 0.98177083 5.45052083 -0.02734375 7.17578125 C-1.13901247 9.13819555 -1.13901247 9.13819555 -2 12 C-2.33 12 -2.66 12 -3 12 C-3.19591515 7.78782419 -2.84922769 4.80723349 -1 1 C-0.67 0.67 -0.34 0.34 0 0 Z " fill="#1E8548" transform="translate(202,179)"/>
<path d="M0 0 C0.33 0 0.66 0 1 0 C1 3.63 1 7.26 1 11 C-2.51716303 7.48283697 -2.54676163 5.80432667 -3 1 C-2.67 1.66 -2.34 2.32 -2 3 C-1.34 3 -0.68 3 0 3 C0 2.01 0 1.02 0 0 Z " fill="#23894E" transform="translate(112,84)"/>
<path d="M0 0 C-1.04874998 2.62187494 -1.64931313 3.79371361 -4.125 5.25 C-4.74375 5.4975 -5.3625 5.745 -6 6 C-6.66 5.34 -7.32 4.68 -8 4 C-2.25 0 -2.25 0 0 0 Z " fill="#C7D5D7" transform="translate(326,5)"/>
<path d="M0 0 C5.75 -0.125 5.75 -0.125 8 1 C8 1.66 8 2.32 8 3 C6.25 3.75 6.25 3.75 4 4 C1.75 2.0625 1.75 2.0625 0 0 Z " fill="#0B793A" transform="translate(28,90)"/>
<path d="M0 0 C2.58949269 1.29474635 2.96035764 2.32663393 4 5 C4.125 7.75 4.125 7.75 4 10 C3.34 9.67 2.68 9.34 2 9 C1.3671875 6.93359375 1.3671875 6.93359375 0.875 4.4375 C0.70742187 3.61121094 0.53984375 2.78492188 0.3671875 1.93359375 C0.24601563 1.29550781 0.12484375 0.65742188 0 0 Z " fill="#0E7438" transform="translate(149,262)"/>
<path d="M0 0 C2.9375 1.3125 2.9375 1.3125 6 3 C6.33 3.99 6.66 4.98 7 6 C3.75728494 5.4409112 2.06942576 4.5867822 0 2 C0 1.34 0 0.68 0 0 Z " fill="#23844A" transform="translate(82,109)"/>
<path d="M0 0 C1.32 0 2.64 0 4 0 C4 0.66 4 1.32 4 2 C4.99 2.33 5.98 2.66 7 3 C5.02 3.99 5.02 3.99 3 5 C1.5 3.625 1.5 3.625 0 2 C0 1.34 0 0.68 0 0 Z " fill="#2A8A51" transform="translate(65,102)"/>
<path d="M0 0 C0.99 0 1.98 0 3 0 C3.33 1.98 3.66 3.96 4 6 C3.01 5.67 2.02 5.34 1 5 C1 4.34 1 3.68 1 3 C0.34 2.34 -0.32 1.68 -1 1 C-0.67 0.67 -0.34 0.34 0 0 Z " fill="#25884E" transform="translate(119,202)"/>
<path d="M0 0 C0.99 0.33 1.98 0.66 3 1 C2 3 1 5 0 7 C-0.66 7 -1.32 7 -2 7 C-1.125 1.125 -1.125 1.125 0 0 Z " fill="#197F41" transform="translate(211,160)"/>
<path d="M0 0 C0.66 0.66 1.32 1.32 2 2 C1.67 2.66 1.34 3.32 1 4 C0.34 4 -0.32 4 -1 4 C-1.33 4.66 -1.66 5.32 -2 6 C-2 5.01 -2 4.02 -2 3 C-2.99 2.67 -3.98 2.34 -5 2 C-3.35 1.34 -1.7 0.68 0 0 Z " fill="#559E70" transform="translate(313,13)"/>
<path d="" fill="#6DB281" transform="translate(0,0)"/>
<path d="" fill="#BFDFD2" transform="translate(0,0)"/>
<path d="" fill="#75C886" transform="translate(0,0)"/>
<path d="" fill="#C3C8DA" transform="translate(0,0)"/>
<path d="" fill="#FFFFFF" transform="translate(0,0)"/>
<path d="" fill="#FFFFFF" transform="translate(0,0)"/>
<path d="" fill="#FCF6FF" transform="translate(0,0)"/>
<path d="" fill="#FDF9FF" transform="translate(0,0)"/>
<path d="" fill="#FFFFFF" transform="translate(0,0)"/>
<path d="" fill="#FEFEFF" transform="translate(0,0)"/>
<path d="" fill="#FFFFFF" transform="translate(0,0)"/>
<path d="" fill="#C1E0DC" transform="translate(0,0)"/>
<path d="" fill="#A0DAB2" transform="translate(0,0)"/>
<path d="" fill="#FFFFFF" transform="translate(0,0)"/>
<path d="" fill="#94D69E" transform="translate(0,0)"/>
<path d="" fill="#A5DBB6" transform="translate(0,0)"/>
<path d="" fill="#FFFFFF" transform="translate(0,0)"/>
<path d="" fill="#FFFFFF" transform="translate(0,0)"/>
</svg>
